<svg width="81" height="33" viewBox="0 0 81 33" fill="none" xmlns="http://www.w3.org/2000/svg">
<path d="M0.06 19.504V14.536L15.54 6.256V11.224L4.848 16.876V17.164L15.54 22.816V27.784L0.06 19.504ZM42.7999 32.968L54.3559 0.639998H59.1439L47.5879 32.968H42.7999ZM64.8178 22.816L75.5098 17.164V16.876L64.8178 11.224V6.256L80.2978 14.536V19.504L64.8178 27.784V22.816Z" fill="white" fill-opacity="0.5"/>
<path d="M34.2459 28L32.6619 21.952H25.7859L24.2379 28H18.7659L25.5699 2.872H33.2019L40.0059 28H34.2459ZM29.3859 8.092H29.0979L26.6499 17.596H31.8339L29.3859 8.092Z" fill="white"/>
</svg>
